<svg xmlns="http://www.w3.org/2000/svg" viewBox="0 0 80 80"><defs><style>.cls-1{fill:#788a94;}</style></defs><g id="Layer_8" data-name="Layer 8"><rect class="cls-1" x="6.37" y="55.35" width="67.25" height="3.36" rx="1.68"/><rect class="cls-1" x="6.37" y="69.55" width="67.25" height="3.36" rx="1.68"/><rect class="cls-1" x="11.19" y="62.55" width="5.47" height="3.16"/><rect class="cls-1" x="24.18" y="62.55" width="5.47" height="3.16"/><rect class="cls-1" x="37.18" y="62.55" width="5.47" height="3.16"/><rect class="cls-1" x="50.18" y="62.55" width="5.47" height="3.16"/><rect class="cls-1" x="63.18" y="62.55" width="5.47" height="3.16"/><path class="cls-1" d="M71.19,36.37a5.16,5.16,0,0,1,1,3.06A5.25,5.25,0,0,1,67,44.67a3.67,3.67,0,0,1-.66-.05,5.23,5.23,0,0,1-9.65,0l-.42,0a5.24,5.24,0,0,1-4.12-8.48,5.16,5.16,0,0,1-1-3.06,5.25,5.25,0,0,1,5.24-5.24l.42,0a5.24,5.24,0,0,1,9.65,0,3.67,3.67,0,0,1,.66-.05,5.24,5.24,0,0,1,4.12,8.48Z"/><rect class="cls-1" x="60.15" y="36.29" width="3" height="20.44"/><path class="cls-1" d="M40,7.08H18.13a4.2,4.2,0,0,0-4.21,4.21V57H44.15V11.29A4.2,4.2,0,0,0,40,7.08Zm-9,9.6A1.06,1.06,0,0,1,32,15.61h6.18a1.07,1.07,0,0,1,1.07,1.07v6.18a1.07,1.07,0,0,1-1.07,1.06H32a1.06,1.06,0,0,1-1.06-1.06Zm-12.07,0a1.07,1.07,0,0,1,1.06-1.07H26.1a1.07,1.07,0,0,1,1.06,1.07v6.18a1.07,1.07,0,0,1-1.06,1.06H19.91a1.07,1.07,0,0,1-1.06-1.06Zm8.31,32a1.06,1.06,0,0,1-1.06,1.06H19.91a1.06,1.06,0,0,1-1.06-1.06V42.54a1.06,1.06,0,0,1,1.06-1.06H26.1a1.06,1.06,0,0,1,1.06,1.06Zm.08-12.93a1.05,1.05,0,0,1-1.06,1.06H20a1.06,1.06,0,0,1-1.07-1.06V29.61A1.07,1.07,0,0,1,20,28.54h6.18a1.06,1.06,0,0,1,1.06,1.07Zm12,12.93a1.06,1.06,0,0,1-1.07,1.06H32a1.05,1.05,0,0,1-1.06-1.06V42.54A1.05,1.05,0,0,1,32,41.48h6.18a1.06,1.06,0,0,1,1.07,1.06Zm.08-12.93a1.06,1.06,0,0,1-1.07,1.06H32.06A1.06,1.06,0,0,1,31,35.79V29.61a1.07,1.07,0,0,1,1.06-1.07h6.18a1.07,1.07,0,0,1,1.07,1.07Z"/></g></svg>