<svg xmlns="http://www.w3.org/2000/svg" viewBox="0 0 80 80"><defs><style>.cls-1{fill:#3e7691;}</style></defs><g id="Layer_8" data-name="Layer 8"><path class="cls-1" d="M75.88,29.2H66.2a.76.76,0,0,1-.69-.45,28,28,0,0,0-3-5.21.74.74,0,0,1,0-.82l4.84-8.39a2.56,2.56,0,0,0-.93-3.49L52.07,2.6a2.54,2.54,0,0,0-3.48.93l-4.85,8.39a.75.75,0,0,1-.73.37,26.73,26.73,0,0,0-6,0,.75.75,0,0,1-.73-.37L31.41,3.53a2.54,2.54,0,0,0-3.48-.93L13.64,10.84a2.56,2.56,0,0,0-.93,3.49l4.84,8.39a.74.74,0,0,1-.05.82,28,28,0,0,0-3,5.21.74.74,0,0,1-.68.45H4.12a2.55,2.55,0,0,0-2.55,2.55v16.5A2.55,2.55,0,0,0,4.12,50.8H13.8a.76.76,0,0,1,.69.45,28,28,0,0,0,3,5.21.74.74,0,0,1,.05.82l-4.84,8.39a2.56,2.56,0,0,0,.93,3.49L27.93,77.4a2.54,2.54,0,0,0,3.48-.93l4.85-8.39a.75.75,0,0,1,.73-.37,26.73,26.73,0,0,0,6,0,.75.75,0,0,1,.73.37l4.85,8.39a2.54,2.54,0,0,0,3.48.93l14.29-8.24a2.56,2.56,0,0,0,.93-3.49l-4.84-8.39a.74.74,0,0,1,0-.82,28,28,0,0,0,3-5.21.74.74,0,0,1,.68-.45h9.69a2.55,2.55,0,0,0,2.55-2.55V31.75A2.55,2.55,0,0,0,75.88,29.2ZM44.53,49.88A10.91,10.91,0,0,1,30.12,35.47a9.94,9.94,0,0,1,5.35-5.35A10.91,10.91,0,0,1,49.88,44.53,9.94,9.94,0,0,1,44.53,49.88Z"/></g></svg>