<svg xmlns="http://www.w3.org/2000/svg" viewBox="0 0 80 80"><defs><style>.cls-1{fill:#788a94;}</style></defs><g id="Layer_8" data-name="Layer 8"><path class="cls-1" d="M13,60.85c11.72,15,28.78,11.53,29.51,11.37C53.09,69.63,59.16,63.78,61,54.36c1.91-10,.4-16.58-5-21.84s-13.68-5.9-18.32-3.58a11.38,11.38,0,0,0-6.72,10.63,7.91,7.91,0,0,0,2.71,6A5.67,5.67,0,0,0,36,46.76a6.38,6.38,0,1,1,11.66-3.58,6.84,6.84,0,0,1,0,.79,9.4,9.4,0,0,1-7.91,9.11,12,12,0,0,1-10.18-2.52,14.3,14.3,0,0,1-5-11A17.71,17.71,0,0,1,34.72,23.17c6.75-3.37,18.2-2.53,25.68,4.71,7.09,6.86,9.22,15.4,6.88,27.69a29,29,0,0,1-3.13,8.76,33.63,33.63,0,1,0-51.22-3.44Z"/></g></svg>