<svg xmlns="http://www.w3.org/2000/svg" viewBox="0 0 80 80"><defs><style>.cls-1{fill:#62727a;}</style></defs><g id="Layer_8" data-name="Layer 8"><path class="cls-1" d="M35.64,22.85a1.45,1.45,0,0,0,1.65.27L43,20.25A1.44,1.44,0,0,0,43.82,19,1.42,1.42,0,0,0,43,17.68l-5.74-2.87a1.45,1.45,0,0,0-1.65.27L32.77,18a1.42,1.42,0,0,0-.42,1,1.45,1.45,0,0,0,.42,1Z"/><path class="cls-1" d="M45.26,38.09H51a1.45,1.45,0,0,0,1.28-.79l2.87-5.74a1.46,1.46,0,0,0-.27-1.66L52,27a1.44,1.44,0,0,0-2,0l-5.74,5.74a1.45,1.45,0,0,0-.42,1v2.86a1.49,1.49,0,0,0,.42,1,1.45,1.45,0,0,0,1,.42Z"/><path class="cls-1" d="M76.17,44.67l-3.06-6.12h0a1.59,1.59,0,0,0-.68-.68l-6.12-3.06h0a1.58,1.58,0,0,0-1.17-.09,1.55,1.55,0,0,0-.88.77L61.2,41.61a1.49,1.49,0,0,0-.16.69v6.11a1.52,1.52,0,0,0,.84,1.37L68,52.84h0a1.54,1.54,0,0,0,1.77-.28l6.12-6.12a1.54,1.54,0,0,0,.28-1.77Z"/><path class="cls-1" d="M53.11,52.4a1.87,1.87,0,0,0-.78-.72l-14.9-7.45-11-14.63L22.73,14.68a1.88,1.88,0,0,0-1-1.25L6.43,5.78A1.9,1.9,0,0,0,3.67,7.49V31.17l10.41,5.21a1.91,1.91,0,0,1,.86.85l3.82,7.65a1.9,1.9,0,0,1,.11,1.46,2,2,0,0,1-1,1.11,2,2,0,0,1-.86.2,1.92,1.92,0,0,1-1.71-1.06L11.8,39.51,3.67,35.45V72.51a1.86,1.86,0,0,0,.56,1.35,1.88,1.88,0,0,0,1.35.56H63a1.91,1.91,0,0,0,1.64-2.89ZM32.35,59.12H25.49l-3.26,3.27a1.92,1.92,0,0,1-2.71-2.71l3.83-3.82a1.9,1.9,0,0,1,1.35-.56h7.65a1.91,1.91,0,0,1,0,3.82Z"/></g></svg>