<svg xmlns="http://www.w3.org/2000/svg" viewBox="0 0 80 80"><defs><style>.cls-1{fill:#788a94;}</style></defs><g id="Layer_8" data-name="Layer 8"><path class="cls-1" d="M16.29,54.8l7.48-8.18a17.06,17.06,0,0,1-1.12-6.13A17.38,17.38,0,0,1,40,23.13a16,16,0,0,1,4.67.67L49.11,19C32.21,14,18,22.58,3.35,37.25a4.17,4.17,0,0,0-.14,5.8A78.66,78.66,0,0,0,16.29,54.8Z"/><path class="cls-1" d="M76.65,37.25A91.44,91.44,0,0,0,61.06,24.51l9.85-10.75a4.23,4.23,0,0,0-6.25-5.71L10.49,67.22a4.22,4.22,0,0,0,.28,6,4.1,4.1,0,0,0,2.85,1.12,4.2,4.2,0,0,0,3.09-1.38l11.06-12.1a35.74,35.74,0,0,0,12.3,2.28h0c12.41,0,24.77-6.75,36.72-20.06A4.2,4.2,0,0,0,76.65,37.25ZM40,57.82A16.83,16.83,0,0,1,32.24,56l6.19-6.73a9.19,9.19,0,0,0,1.58.14,8.9,8.9,0,0,0,8.89-8.89,9.2,9.2,0,0,0-.31-2.36l6.16-6.73a17.06,17.06,0,0,1,2.59,9.09A17.33,17.33,0,0,1,40,57.82Z"/></g></svg>