<svg xmlns="http://www.w3.org/2000/svg" viewBox="0 0 80 80"><defs><style>.cls-1{fill:#3e7691;}</style></defs><g id="Layer_8" data-name="Layer 8"><path class="cls-1" d="M23,71.38V75.3a1.31,1.31,0,0,1-1.3,1.31H4.7A1.31,1.31,0,0,1,3.39,75.3V4.7A1.31,1.31,0,0,1,4.7,3.39h17A1.31,1.31,0,0,1,23,4.7V8.62H13.2a2,2,0,1,0,0,3.92H23v5.89H18.43a2,2,0,0,0,0,3.92H23v5.88H13.2a2,2,0,0,0,0,3.93H23V38H18.43a2,2,0,0,0,0,3.92H23v5.89H13.2a2,2,0,1,0,0,3.92H23v5.88H18.43a2,2,0,0,0,0,3.92H23v5.89H13.2a2,2,0,0,0,0,3.92Z"/><path class="cls-1" d="M65.74,26.93H58.3V41.31a1.3,1.3,0,0,1-1.3,1.3H51.77a1.31,1.31,0,0,1-1.31-1.3V26.93H43a.4.4,0,0,1-.29-.68L54.08,14a.43.43,0,0,1,.61,0L66,26.25a.4.4,0,0,1-.29.68Z"/><path class="cls-1" d="M76.36,73.08a2.62,2.62,0,0,1-3.47,1.27A3.38,3.38,0,0,0,71.38,74c-2.2,0-3.79,2.62-7.85,2.62S57.89,74,55.69,74,52,76.61,47.84,76.61C44,76.61,42.12,74,40,74s-3.79,2.62-7.84,2.62a9.81,9.81,0,0,1-5.23-1.67V69.19c2.24.74,3.69,2.19,5.23,2.19,2.19,0,3.8-2.62,7.85-2.62,3.89,0,5.73,2.62,7.84,2.62s3.75-2.62,7.85-2.62c3.87,0,5.76,2.62,7.84,2.62s3.8-2.62,7.85-2.62a8.49,8.49,0,0,1,3.72.85,2.61,2.61,0,0,1,1.26,3.47Z"/><path class="cls-1" d="M76.36,62.63a2.61,2.61,0,0,1-3.47,1.26,3.38,3.38,0,0,0-1.51-.36c-2.2,0-3.79,2.62-7.85,2.62s-5.64-2.62-7.84-2.62S52,66.15,47.84,66.15c-3.88,0-5.72-2.62-7.84-2.62s-3.79,2.62-7.84,2.62a9.9,9.9,0,0,1-5.23-1.66V58.73c2.24.74,3.69,2.19,5.23,2.19,2.19,0,3.8-2.62,7.85-2.62,3.89,0,5.73,2.62,7.84,2.62s3.75-2.62,7.85-2.62c3.87,0,5.76,2.62,7.84,2.62s3.8-2.62,7.85-2.62a8.49,8.49,0,0,1,3.72.85,2.61,2.61,0,0,1,1.26,3.48Z"/><path class="cls-1" d="M76.36,52.16a2.61,2.61,0,0,1-3.47,1.27,3.38,3.38,0,0,0-1.51-.36c-2.2,0-3.79,2.62-7.85,2.62s-5.64-2.62-7.84-2.62S52,55.69,47.84,55.69c-3.88,0-5.72-2.62-7.84-2.62s-3.79,2.62-7.84,2.62A9.9,9.9,0,0,1,26.93,54V48.27c2.24.74,3.69,2.19,5.23,2.19,2.19,0,3.8-2.62,7.85-2.62,3.89,0,5.73,2.62,7.84,2.62s3.75-2.62,7.85-2.62c3.87,0,5.76,2.62,7.84,2.62s3.8-2.62,7.85-2.62a8.49,8.49,0,0,1,3.72.85,2.61,2.61,0,0,1,1.26,3.47Z"/></g></svg>