<svg xmlns="http://www.w3.org/2000/svg" viewBox="0 0 80 80"><defs><style>.cls-1{fill:#3e7691;}</style></defs><g id="Layer_8" data-name="Layer 8"><path class="cls-1" d="M9.13,30.48,34.84,4.77a7.76,7.76,0,0,1,11,0L71,30a4.74,4.74,0,0,1-3.35,8.09H65.93V48a3.85,3.85,0,0,1-3.85,3.85H55A3.85,3.85,0,0,1,51.11,48v-8.2a7.59,7.59,0,0,0-7.59-7.59H35.8a7.59,7.59,0,0,0-7.59,7.59V47a3.85,3.85,0,0,1-3.85,3.85h-7.2A3.85,3.85,0,0,1,13.3,47V37.76H12.14A4.26,4.26,0,0,1,9.13,30.48Z"/><path class="cls-1" d="M57.11,64.53c-3.81,0-6.84-1.42-9.76-2.8-2.61-1.22-5.06-2.38-7.9-2.38s-5,1-7.64,2.22c-3.08,1.39-6.56,3-11.16,3a18.48,18.48,0,0,1-9.95-3c-2.19-1.23-3.92-2.2-6.9-2.2a2.71,2.71,0,1,1,0-5.41,17.86,17.86,0,0,1,9.55,2.9c2.19,1.23,4.08,2.29,7.3,2.29,3.43,0,6.11-1.21,8.94-2.49s6-2.7,9.86-2.7c4,0,7.31,1.54,10.2,2.9,2.61,1.23,4.86,2.29,7.46,2.29S62.27,58,65,56.85c3.15-1.36,6.73-2.91,10.93-2.91a2.71,2.71,0,1,1,0,5.41c-3.09,0-5.85,1.19-8.78,2.46C64,63.15,60.83,64.53,57.11,64.53Z"/><path class="cls-1" d="M57.41,77.51c-3.81,0-6.84-1.43-9.76-2.81-2.61-1.22-5.07-2.38-7.91-2.38s-5,1-7.63,2.23c-3.08,1.38-6.56,3-11.16,3a18.57,18.57,0,0,1-9.95-3c-2.19-1.24-3.92-2.21-6.9-2.21a2.7,2.7,0,1,1,0-5.4,17.86,17.86,0,0,1,9.55,2.89C15.84,71,17.73,72.1,21,72.1c3.43,0,6.11-1.2,8.94-2.48s6-2.7,9.85-2.7c4,0,7.32,1.53,10.21,2.89,2.61,1.23,4.86,2.29,7.46,2.29s5.16-1.1,7.86-2.28c3.16-1.36,6.72-2.9,10.93-2.9a2.7,2.7,0,1,1,0,5.4c-3.09,0-5.85,1.2-8.78,2.46C64.33,76.12,61.13,77.51,57.41,77.51Z"/></g></svg>