<svg xmlns="http://www.w3.org/2000/svg" viewBox="0 0 80 80"><defs><style>.cls-1{fill:#788a94;}</style></defs><g id="Layer_8" data-name="Layer 8"><path class="cls-1" d="M33.13,46.24H49.2A10.63,10.63,0,0,1,59.83,56.87v7.89a4.9,4.9,0,0,1-4.9,4.9H27.39a4.9,4.9,0,0,1-4.9-4.9V56.87A10.63,10.63,0,0,1,33.13,46.24Z"/><circle class="cls-1" cx="40.75" cy="32.1" r="9.59"/><circle class="cls-1" cx="58.32" cy="18.67" r="8.32"/><path class="cls-1" d="M48.23,49.51H37.06v.23a5.35,5.35,0,0,0,5.35,5.34H56.08A8.33,8.33,0,0,0,48.23,49.51Z"/><path class="cls-1" d="M62.8,31.67H54c0,.14,0,.29,0,.43A13.19,13.19,0,0,1,48.27,43,14.91,14.91,0,0,1,62.84,55.08h6.22a5.34,5.34,0,0,0,5.34-5.34V43.27A11.6,11.6,0,0,0,62.8,31.67Z"/><circle class="cls-1" cx="23.4" cy="18.67" r="8.32"/><path class="cls-1" d="M33.49,49.51H44.65v.23a5.34,5.34,0,0,1-5.34,5.34H25.64A8.33,8.33,0,0,1,33.49,49.51Z"/><path class="cls-1" d="M18.92,31.67h8.85c0,.14,0,.29,0,.43A13.21,13.21,0,0,0,33.44,43,14.9,14.9,0,0,0,18.88,55.08H12.66a5.34,5.34,0,0,1-5.34-5.34V43.27A11.6,11.6,0,0,1,18.92,31.67Z"/></g></svg>