<svg xmlns="http://www.w3.org/2000/svg" viewBox="0 0 20 20"><defs><style>.cls-1{fill:#bf3535;}.cls-2{fill:#231f20;}</style></defs><g id="Layer_2" data-name="Layer 2"><path class="cls-1" d="M3.46,13.1,6.81,9a.32.32,0,0,1,.45,0l8,8h-12l-.19-4.13Z"/><path class="cls-1" d="M16.81,14.79a.1.1,0,0,1-.18.08l-3.52-3.44a.22.22,0,0,1,0-.3l.46-.51a1.48,1.48,0,0,1,2.26.21l1,1.39a.07.07,0,0,1,0,.06Z"/><circle class="cls-1" cx="12.53" cy="6.79" r="1.43"/><path class="cls-2" d="M3.72,3.72h.92l-1.3-1.3H3.07a.65.65,0,0,0-.65.65v.27l1.3,1.3Z"/><path class="cls-2" d="M17.27,17.92a.65.65,0,0,0,.65-.65V17l-1.3-1.3v.92H15.7l1.3,1.3Z"/><path class="cls-1" d="M5.48,3.72H16.62V14.86l1.3,1.3V3.07a.65.65,0,0,0-.65-.65H4.18Z"/><path class="cls-1" d="M14.86,16.62H3.72V5.48l-1.3-1.3V17.27a.65.65,0,0,0,.65.65H16.16Z"/><path class="cls-1" d="M19.27,19.92a.65.65,0,0,1-.46-.19L.27,1.19a.64.64,0,0,1,0-.92.64.64,0,0,1,.92,0L19.73,18.81a.64.64,0,0,1,0,.92A.62.62,0,0,1,19.27,19.92Z"/></g></svg>