<svg xmlns="http://www.w3.org/2000/svg" viewBox="0 0 80 80"><defs><style>.cls-1{fill:#788a94;}.cls-2{fill:#fff;}</style></defs><g id="Layer_8" data-name="Layer 8"><path class="cls-1" d="M24.45,78.51a.49.49,0,0,1-.45-.29l-6.31-13.7L9.15,71.63a.54.54,0,0,1-.32.11.41.41,0,0,1-.21,0,.48.48,0,0,1-.29-.45v-35a.51.51,0,0,1,.3-.46.71.71,0,0,1,.2,0,.48.48,0,0,1,.34.14L34.94,60.16a.51.51,0,0,1,.12.54.48.48,0,0,1-.45.32l-11.3.35L29.76,75.8a.48.48,0,0,1,0,.39.51.51,0,0,1-.27.27l-4.86,2A.43.43,0,0,1,24.45,78.51Z"/><path class="cls-1" d="M8.83,36.26,34.59,60.52l-12,.38L29.3,76l-4.85,2L17.87,63.72l-9,7.52v-35m0-1a1,1,0,0,0-.4.09,1,1,0,0,0-.6.91v35a1,1,0,0,0,.58.91,1,1,0,0,0,.42.09A1,1,0,0,0,9.47,72l8-6.69,6,13.11a1,1,0,0,0,.91.58,1,1,0,0,0,.38-.07l4.86-2a1,1,0,0,0,.54-.56,1,1,0,0,0,0-.78L24.07,61.85l10.55-.33a1,1,0,0,0,.91-.64,1,1,0,0,0-.25-1.09L9.52,35.54a1,1,0,0,0-.69-.28Z"/><rect class="cls-1" x="21.33" y="6.87" width="51.43" height="35.66" rx="5.08"/><rect class="cls-2" x="29.84" y="14.9" width="34.4" height="6.85" rx="1.11"/><rect class="cls-2" x="29.84" y="27.69" width="23.29" height="6.85" rx="1.11"/></g></svg>