<svg xmlns="http://www.w3.org/2000/svg" viewBox="0 0 80 80"><defs><style>.cls-1{fill:#788a94;}</style></defs><g id="Layer_8" data-name="Layer 8"><path class="cls-1" d="M62.86,72.92a3.32,3.32,0,0,0,3.08-4.6,26.62,26.62,0,0,0-48.93,0,3.32,3.32,0,0,0,3.07,4.6Z"/><path class="cls-1" d="M20.8,16.06H10.63a3.31,3.31,0,0,0-3.31,3.31A19.5,19.5,0,0,0,26.81,38.86H32.2A1.11,1.11,0,0,1,33.31,40v16H40V35.26A19.19,19.19,0,0,0,20.8,16.06ZM25,32.63h0A11.45,11.45,0,0,1,13.5,21.18h7.16c5.65,0,9.1,3,9.1,6.64A4.82,4.82,0,0,1,25,32.63Z"/><path class="cls-1" d="M69.74,26.9h-9A17,17,0,0,0,43.66,44V62.3H49.6V55.22h.74v-7a1.07,1.07,0,0,1,1.06-1.07l4,0A17.31,17.31,0,0,0,72.68,29.82,2.94,2.94,0,0,0,69.74,26.9ZM57,41.62h0a4.27,4.27,0,0,1-4.27-4.27c0-3.26,3.07-5.9,8.08-5.9h6.36A10.17,10.17,0,0,1,57,41.62Z"/><path class="cls-1" d="M61.46,7.08H54.05A14,14,0,0,0,40,21.13a2.73,2.73,0,0,0,2.73,2.73h7.1A14.14,14.14,0,0,0,64,9.71v-.1A2.52,2.52,0,0,0,61.46,7.08ZM51.36,19.24h-.45a3.39,3.39,0,0,1-3.39-3.39c0-2.4,1.9-4.34,5.78-4.34h5.79A7.73,7.73,0,0,1,51.36,19.24Z"/></g></svg>