<svg xmlns="http://www.w3.org/2000/svg" viewBox="0 0 28 28"><defs><style>.cls-1,.cls-2,.cls-3{fill:#037c09;}.cls-1,.cls-2{stroke:#037c09;}.cls-1{stroke-miterlimit:10;}.cls-2{stroke-linecap:round;stroke-linejoin:round;}</style></defs><g id="Layer_8" data-name="Layer 8"><path class="cls-1" d="M21.24,19.12l4.54,4.55a.87.87,0,0,0,1.23,0h0a.87.87,0,0,0,0-1.23l-4.53-4.53"/><path class="cls-2" d="M8.11,14A9.23,9.23,0,0,1,14.6,5.19V2.47L7.71,5.82V25.53l6.83-2.68v-.06A9.22,9.22,0,0,1,8.11,14Z"/><path class="cls-3" d="M22.05,23.06a.51.51,0,0,0-.51.51v1.24l-6.83-2.44a.53.53,0,0,0-.35,0L7.73,25l-6-2.81V3.81L7.51,6.29a.48.48,0,0,0,.42,0L14.65,3l6.89,2.2v1a.81.81,0,0,0,.37.68L22,7a.35.35,0,0,0,.2.07.4.4,0,0,0,.39-.39V4.85a.5.5,0,0,0-.36-.48L14.77,2a.5.5,0,0,0-.38,0L7.69,5.26,1.44,2.58a.48.48,0,0,0-.48,0A.5.5,0,0,0,.73,3V22.48a.54.54,0,0,0,.29.46l6.47,3a.51.51,0,0,0,.4,0l6.66-2.61L21.88,26a.47.47,0,0,0,.17,0,.51.51,0,0,0,.29-.1.49.49,0,0,0,.22-.41v-2A.51.51,0,0,0,22.05,23.06Z"/><path class="cls-1" d="M17.32,7.55A6.45,6.45,0,1,0,23.78,14,6.45,6.45,0,0,0,17.32,7.55Zm.17,11.25A4.8,4.8,0,1,1,22.28,14,4.8,4.8,0,0,1,17.49,18.8Z"/></g></svg>