<svg xmlns="http://www.w3.org/2000/svg" viewBox="0 0 80 80"><defs><style>.cls-1{fill:#788a94;}.cls-2{fill:none;stroke:#788a94;stroke-linecap:round;stroke-miterlimit:10;stroke-width:6px;}</style></defs><g id="Layer_8" data-name="Layer 8"><path class="cls-1" d="M24.9,78.6a.52.52,0,0,1-.46-.29l-6.3-13.7L9.6,71.72a.54.54,0,0,1-.32.11.52.52,0,0,1-.21,0,.51.51,0,0,1-.29-.46v-35a.51.51,0,0,1,.3-.46.48.48,0,0,1,.2,0,.47.47,0,0,1,.34.13L35.39,60.25a.51.51,0,0,1,.12.54.48.48,0,0,1-.45.32l-11.3.36,6.45,14.42a.48.48,0,0,1,0,.39.57.57,0,0,1-.27.28l-4.86,2A.43.43,0,0,1,24.9,78.6Z"/><path class="cls-1" d="M9.28,36.36,35,60.61,23,61l6.75,15.1-4.85,2L18.32,63.81l-9,7.52v-35m0-1a1,1,0,0,0-.4.08,1,1,0,0,0-.6.92v35a1,1,0,0,0,.58.91,1,1,0,0,0,.42.09,1,1,0,0,0,.64-.23l8-6.69,6,13.11a1,1,0,0,0,1.29.51l4.86-2a1,1,0,0,0,.54-.56,1,1,0,0,0,0-.77L24.52,61.94l10.55-.33A1,1,0,0,0,36,61a1,1,0,0,0-.25-1.08L10,35.63a1,1,0,0,0-.69-.27Z"/><path class="cls-1" d="M69.7,13.47V34.11a5.07,5.07,0,0,1-5.08,5.08H43.21l4.6-5H64.62a.08.08,0,0,0,.08-.08V15.83l4.39-4.78A5.05,5.05,0,0,1,69.7,13.47Z"/><path class="cls-1" d="M51.48,8.39l-4.6,5H30.36a.08.08,0,0,0-.08.08v18l-4.49,4.89a4.92,4.92,0,0,1-.51-2.21V13.47a5.08,5.08,0,0,1,5.08-5.08Z"/><line class="cls-2" x1="28.64" y1="44.29" x2="66.35" y2="3.3"/></g></svg>