<svg id="Layer_1" data-name="Layer 1" xmlns="http://www.w3.org/2000/svg" viewBox="0 0 20 20"><defs><style>.cls-1{fill:#2b2b2b;}</style></defs><path class="cls-1" d="M10.06,0a10,10,0,1,0,10,10A10,10,0,0,0,10.06,0ZM11,17.7a1.62,1.62,0,0,1-1.12.43,1.67,1.67,0,0,1-1.14-.42,1.49,1.49,0,0,1-.49-1.19,1.55,1.55,0,0,1,.47-1.14,1.59,1.59,0,0,1,1.16-.46,1.57,1.57,0,0,1,1.6,1.6A1.49,1.49,0,0,1,11,17.7Zm4-9.94a5,5,0,0,1-.88,1.18q-.51.51-1.83,1.68a8.13,8.13,0,0,0-.59.59,2.58,2.58,0,0,0-.32.46,1.85,1.85,0,0,0-.17.42c0,.14-.1.38-.18.73a1.19,1.19,0,0,1-1.28,1.12,1.33,1.33,0,0,1-.94-.36,1.47,1.47,0,0,1-.38-1.09,3.92,3.92,0,0,1,.28-1.56,4,4,0,0,1,.74-1.16c.31-.33.73-.73,1.25-1.19s.79-.7,1-.91A2.86,2.86,0,0,0,12.21,7a1.63,1.63,0,0,0,.21-.81,1.9,1.9,0,0,0-.64-1.45,2.32,2.32,0,0,0-1.65-.59,2.26,2.26,0,0,0-1.74.59,4.81,4.81,0,0,0-1,1.76C7.2,7.3,6.74,7.7,6.06,7.7a1.39,1.39,0,0,1-1-.42,1.33,1.33,0,0,1-.41-.92,4,4,0,0,1,.65-2.07A5,5,0,0,1,7.2,2.56a6,6,0,0,1,2.93-.69,6.32,6.32,0,0,1,2.75.57A4.52,4.52,0,0,1,14.72,4a3.84,3.84,0,0,1,.65,2.14A3.33,3.33,0,0,1,15,7.76Z"/></svg>