<svg xmlns="http://www.w3.org/2000/svg" viewBox="0 0 20 20"><defs><style>.cls-1{fill:#d9d9d9;}</style></defs><g id="Layer_2" data-name="Layer 2"><path class="cls-1" d="M13.89,17.49H8.22V16h5.67a3.93,3.93,0,0,0,0-7.86H2.64V6.63H13.89a5.43,5.43,0,0,1,0,10.86Z"/><path class="cls-1" d="M13.89,17.74H8v-2h5.92a3.68,3.68,0,0,0,0-7.36H2.39v-2h11.5a5.68,5.68,0,0,1,0,11.36Zm-5.42-.5h5.42a5.18,5.18,0,0,0,0-10.36h-11v1h11a4.18,4.18,0,0,1,0,8.36H8.47Z"/><polygon class="cls-1" points="5.75 12.43 0.68 7.37 5.54 2.51 6.6 3.57 2.8 7.37 6.81 11.37 5.75 12.43"/><path class="cls-1" d="M5.75,12.79.33,7.37,5.54,2.15,7,3.57l-3.8,3.8,4,4ZM1,7.37l4.72,4.71.7-.71-4-4,3.79-3.8-.7-.71Z"/></g></svg>