<svg id="Layer_1" data-name="Layer 1" xmlns="http://www.w3.org/2000/svg" viewBox="0 0 20 20"><defs><style>.cls-1{fill:#d97914;}</style></defs><path class="cls-1" d="M10,0A10,10,0,1,0,20,10,10,10,0,0,0,10,0Zm1.42,17.12a2,2,0,0,1-1.43.59,2,2,0,0,1,0-4,2,2,0,0,1,1.43.59,2,2,0,0,1,0,2.82Zm.5-11.68c-.35,2.08-.59,3.66-.71,4.75-.06.53-.1,1.12-.12,1.75A1.09,1.09,0,0,1,10,13h0a1.1,1.1,0,0,1-1.09-1c-.08-1.16-.15-2-.21-2.41L8,5.19A7.77,7.77,0,0,1,8,4.34,2.06,2.06,0,0,1,9,2.57a2,2,0,0,1,1-.28,2.11,2.11,0,0,1,1.76,1.06,2,2,0,0,1,.27,1A6.94,6.94,0,0,1,11.92,5.44Z"/></svg>