<svg id="Layer_1" data-name="Layer 1" xmlns="http://www.w3.org/2000/svg" viewBox="0 0 430 35"><defs><style>.cls-1{fill:#04497c;}.cls-2{fill:#c01;}</style></defs><path class="cls-1" d="M8.1.44h0a6.34,6.34,0,0,1,6.34,6.34V34.56a0,0,0,0,1,0,0h0A12.68,12.68,0,0,1,1.77,21.88V6.78A6.34,6.34,0,0,1,8.1.44Z"/><rect class="cls-1" x="19.39" y="0.44" width="12.68" height="12.68" rx="6.34"/><path class="cls-1" d="M25.73,15.44h0a6.34,6.34,0,0,1,6.34,6.34v.11A12.68,12.68,0,0,1,19.39,34.56h0a0,0,0,0,1,0,0V21.78A6.34,6.34,0,0,1,25.73,15.44Z"/><path class="cls-1" d="M51.46,8.79c0,3.53-2.2,5.89-5.47,5.89s-5.55-2.36-5.55-5.89V1.59h1.81v7.2c0,2.51,1.49,4.15,3.74,4.15s3.65-1.64,3.65-4.15V1.59h1.82Z"/><path class="cls-1" d="M63.76,14.43,58.3,8.64H55.89v5.79H54.08V1.59h4.71c2.54,0,4.12,1.44,4.12,3.51a3.34,3.34,0,0,1-2.53,3.32l5.66,6ZM58.79,7c1.46,0,2.32-.78,2.32-1.88s-.86-1.87-2.32-1.87h-2.9V7Z"/><path class="cls-1" d="M77.61,10.59c0,2.3-1.74,3.84-4.49,3.84H67.21V1.59h5.62c2.27,0,3.74,1.27,3.74,3.23A2.73,2.73,0,0,1,75.4,7.2,3.5,3.5,0,0,1,77.61,10.59ZM69,6.68h3.91A1.67,1.67,0,0,0,74.79,5c0-1.07-.74-1.72-2-1.72H69Zm4.11,6.09c1.69,0,2.74-.89,2.74-2.28S74.79,8.15,73,8.15H69v4.62Z"/><path class="cls-1" d="M89.78,14.43l-1.27-2.79H81.67L80.4,14.43h-2l6-12.84h1.44l6,12.84ZM85.1,4.07,82.41,10h5.36Z"/><path class="cls-1" d="M105,14.43h-1.29L95.05,4.88l0,9.55H93.22V1.59h1.29l8.65,9.68V1.59H105Z"/><path class="cls-1" d="M40.56,33.16V20.32h1.81V33.16Z"/><path class="cls-1" d="M56.78,33.16H55.5l-8.64-9.55v9.55H45V20.32h1.28L55,30V20.32h1.81Z"/><path class="cls-1" d="M64.45,22v11.2H62.63V22H58.51V20.32H68.59V22Z"/><path class="cls-1" d="M79.29,33.16h-9V20.32h8.94V22H72.11v3.75h6.7v1.62h-6.7v4.18h7.18Z"/><path class="cls-1" d="M90.2,33.16H81.58V20.32h1.81v11.2H90.2Z"/><path class="cls-1" d="M100.79,33.16H92.18V20.32H94v11.2h6.81Z"/><path class="cls-1" d="M102.77,33.16V20.32h1.81V33.16Z"/><path class="cls-1" d="M119.72,26c0,.31,0,.58,0,.78a6.33,6.33,0,0,1-6.39,6.64,6.67,6.67,0,0,1-.06-13.33,6.22,6.22,0,0,1,6.11,4.14l-1.64.57a4.65,4.65,0,0,0-4.47-3,4.79,4.79,0,0,0-4.73,5,4.81,4.81,0,0,0,4.84,4.95A4.5,4.5,0,0,0,118,27.63h-5.91V26Z"/><path class="cls-1" d="M130.88,33.16h-9V20.32h8.93V22H123.7v3.75h6.71v1.62H123.7v4.18h7.18Z"/><path class="cls-1" d="M144.92,33.16h-1.28L135,23.61l0,9.55h-1.81V20.32h1.29L143.12,30V20.32h1.8Z"/><path class="cls-1" d="M158.12,28.09l1.75.37a6.11,6.11,0,0,1-6.21,4.95,6.67,6.67,0,0,1,0-13.33,6.17,6.17,0,0,1,6.21,4.83l-1.75.49a4.44,4.44,0,0,0-4.46-3.61,4.81,4.81,0,0,0-4.77,5,4.8,4.8,0,0,0,4.77,4.95A4.42,4.42,0,0,0,158.12,28.09Z"/><path class="cls-1" d="M171,33.16h-9V20.32H171V22h-7.13v3.75h6.71v1.62h-6.71v4.18H171Z"/><path class="cls-2" d="M298.3,3.73l0,4.34c0,2-.13,2.67-.63,3.58A4.88,4.88,0,0,1,293,14c-2.62,0-4.64-1.36-5.16-3.53a8.25,8.25,0,0,1-.22-2.22V3.8c0-1.44-.15-1.66-1.29-1.88a.78.78,0,0,1-.21,0V1.46h.35c.52,0,1.05.06,1.57.06.7,0,1.4,0,1.7,0l1,0,.43,0v.42c-1.18.13-1.42.43-1.42,1.82v5a5.3,5.3,0,0,0,.53,2.9,3.92,3.92,0,0,0,7.16-1.38,6.91,6.91,0,0,0,.07-1.2V8.56l-.12-4.71c0-1.58-.2-1.8-1.4-1.93l-.22,0V1.46l.2,0,.79,0c.24,0,.5,0,.78,0l1.16,0,.74,0,.28,0v.44C298.65,2,298.32,2.38,298.3,3.73Z"/><path class="cls-2" d="M315.26,2h-.13c-1.09.06-1.4.43-1.4,1.67V14.08h-.45l-9.57-10.5,0,7.7c0,1.6.31,2,1.64,2v.47h-3.9v-.45c1.27-.09,1.54-.48,1.54-2v-8c0-.91-.39-1.27-1.37-1.31h-.13V1.52l.28,0h.68l.72,0,.7,0h.87l8.21,9.09V3.71c0-1.35-.24-1.62-1.54-1.72V1.5h.3c.52,0,1.31.05,1.73.05l.76,0h1.09Z"/><path class="cls-2" d="M321.38,1.92c-1.12,0-1.38.35-1.38,1.66v8.14c0,1.31.26,1.62,1.38,1.64v.43l-2.38,0-2.45,0v-.42c1.11,0,1.38-.32,1.38-1.64V3.58c0-1.31-.27-1.64-1.38-1.66V1.5c1.11,0,1.75,0,2.85,0s1.24,0,2,0Z"/><path class="cls-2" d="M336.4,1.88a2.08,2.08,0,0,0-2.07,1.41l-.26.66L330,14h-.39L324.85,3.89c-.72-1.56-1-1.82-2.07-2V1.48h1.46c.26,0,1.09,0,1.72,0h1l1,0,.41,0v.42c-1,0-1.52.32-1.52.93a2,2,0,0,0,.21.79l3.45,7.68,2.77-7.68a3.69,3.69,0,0,0,.2-.92c0-.52-.32-.74-1.16-.78V1.48h.27c.11,0,.37,0,.76,0s.81,0,.95,0,.46,0,.95,0l.81,0,.32,0Z"/><path class="cls-2" d="M345.83,1.63l.08.86c0,.47.1.93.19,1.59l0,.29-.58.06a2.81,2.81,0,0,0-.64-1.5c-.57-.63-1-.77-2.78-.77h-1.29v5h1.27c1.64,0,2-.22,2.05-1.47V5.43h.61v.18l0,.81c0,.24,0,.58,0,1s0,.68,0,.89l0,.9v.32h-.61c0-1.4-.35-1.68-2.14-1.68h-1.2v3.76c0,1.27.3,1.51,1.72,1.51,2.54,0,3.34-.55,3.77-2.58l.59.11c-.1.74-.19,1.73-.25,2.77v.37c-.8,0-1.91,0-3.29,0l-3.15,0h-1.55c-.71,0-.82,0-1.27,0V13.4c1.11,0,1.38-.32,1.38-1.64V3.58c0-1.33-.27-1.64-1.38-1.66V1.48l.39,0,1,0h4.87l1.68,0,.57,0Z"/><path class="cls-2" d="M348.9,1.48c.51,0,1,0,1.58,0,.76,0,1.54,0,2.39-.06.59,0,1.06,0,1.43,0,2.22,0,3.69,1.27,3.69,3.18a3.09,3.09,0,0,1-1.56,2.73,5.5,5.5,0,0,1-.95.37,2.55,2.55,0,0,1,.63.86l1,1.89c1.08,2,1.26,2.28,1.75,2.63a1.38,1.38,0,0,0,.63.28,2.28,2.28,0,0,0,.58.05v.43a7.81,7.81,0,0,1-1.18.09,3.71,3.71,0,0,1-2.77-1.05,13.73,13.73,0,0,1-2.07-3.52c-.5-1-.88-1.31-1.84-1.31h-.12v3.32c0,1.63.21,1.86,1.61,1.94v.51h-5.06v-.43c1.12,0,1.38-.32,1.38-1.64V3.56c0-1.32-.26-1.64-1.38-1.66V1.46Zm3.19,5.94.53,0a5.27,5.27,0,0,0,1.89-.26,2.15,2.15,0,0,0,1.2-2.12,3.22,3.22,0,0,0-1.2-2.59A2.93,2.93,0,0,0,352.6,2h-.51Z"/><path class="cls-2" d="M369.2,4.69h-.6a3.59,3.59,0,0,0-.53-1.52,3.09,3.09,0,0,0-2.56-1.34,2,2,0,0,0-2.15,1.88c0,.66.37,1.18,1.23,1.72l1.83,1.05c1.7.95,2.38,1.49,2.81,2.29a3.32,3.32,0,0,1,.35,1.58c0,2.22-1.65,3.69-4.08,3.69a20.18,20.18,0,0,1-3.79-.42l-.15-3.11.61,0,0,.13a3.26,3.26,0,0,0,1.4,2.16,3.54,3.54,0,0,0,2,.68,2.14,2.14,0,0,0,2.21-2.07v0a1.82,1.82,0,0,0-.28-1c-.39-.57-.77-.81-3-1.95-2-1-3-2.16-3-3.54a3.76,3.76,0,0,1,2.26-3.31,5.55,5.55,0,0,1,2-.32,22.18,22.18,0,0,1,2.93.28l.22,0Z"/><path class="cls-2" d="M375.93,1.92c-1.13,0-1.38.35-1.38,1.66v8.14c0,1.31.25,1.62,1.38,1.64v.43l-2.38,0-2.45,0v-.42c1.1,0,1.38-.32,1.38-1.64V3.58c0-1.31-.28-1.64-1.38-1.66V1.5c1.1,0,1.75,0,2.85,0s1.24,0,2,0Z"/><path class="cls-2" d="M388.65,4.86H388a2.45,2.45,0,0,0-.91-2.07c-.42-.3-.66-.35-1.62-.35h-1.46v9.28c0,1.35.26,1.66,1.38,1.68v.4h-4.85v-.4c1.13,0,1.38-.35,1.38-1.66V2.46h-1.88c-1.38,0-1.9.59-2.12,2.43h-.63l.16-3.41.28,0h7.49l1.72,0,1.24,0h.31Z"/><path class="cls-2" d="M402.08,1.92c-.87.09-1.22.39-1.83,1.55l-3.12,6v2.22c0,1.39.24,1.65,1.63,1.72v.42h-5.39v-.42c1.44,0,1.7-.28,1.7-1.74V9.41l-2.54-5.2c-.95-2-1.2-2.22-2.36-2.33V1.5h.37l1,0h3.88l.31,0v.42c-1.08.09-1.36.26-1.36.83a2.21,2.21,0,0,0,.2.85l2.29,4.83,2.29-4.75a2,2,0,0,0,.24-.89c0-.54-.32-.8-1.11-.85V1.52l.26,0,.66,0h2l.57,0h.32Z"/><path class="cls-2" d="M412.82,14c-4.1,0-7.18-2.76-7.18-6.45a6.36,6.36,0,0,1,6.7-6.35c4,0,6.81,2.7,6.81,6.46A6,6,0,0,1,412.82,14Zm-.76-12.21c-2.42,0-3.89,2-3.89,5.24,0,3.67,1.94,6.34,4.59,6.34,2.36,0,3.88-2,3.88-5.24V8C416.53,4.3,414.66,1.83,412.06,1.83Z"/><path class="cls-2" d="M428.74,1.85c0,.14,0,.31,0,.51,0,.41,0,.69,0,.85l.07.78,0,.42-.56.06A2.56,2.56,0,0,0,427.78,3c-.59-.68-1.27-.88-3.11-.88H423.3v5h1.37c1.84,0,2.19-.25,2.25-1.69h.56c0,.83-.06,1.53-.06,2.32,0,.41,0,.83,0,1.38l0,.34h-.56c-.09-1.33-.52-1.65-2.32-1.65h-1.27v3.88c0,1.35.27,1.66,1.45,1.66h.17l0,.42h-5.12v-.43c1.11,0,1.38-.32,1.38-1.64V3.56c0-1.32-.25-1.66-1.38-1.68V1.46l.44,0,1.37,0,1.42,0h5.67Z"/><path class="cls-2" d="M300.51,32a10.51,10.51,0,0,1-6.39,2.15c-4.65,0-7.8-2.92-7.8-7.26s3.35-7.52,8.25-7.52a15.39,15.39,0,0,1,5.6,1.15v.31l0,1v1.8l0,.45h-.47a5.21,5.21,0,0,0-9.86-.85,8.11,8.11,0,0,0-.6,3.07c0,4,2.41,7.15,5.54,7.15a5.59,5.59,0,0,0,4.15-2,7.68,7.68,0,0,0,1.37-1.74h.15Z"/><path class="cls-2" d="M313.5,30.83c.85,2,1.27,2.38,2.65,2.54v.46l-.56,0h-5.5V33.3h.18c.78,0,1.17-.25,1.17-.83a2.11,2.11,0,0,0-.17-.7l-1.18-2.88h-4.53l-1,2.71a3.35,3.35,0,0,0-.24.89c0,.56.39.79,1.27.81l.26,0v.51c-.73,0-.95,0-1.83,0h-3V33.3c1.17,0,1.94-.68,2.58-2.22l4.88-11.88Zm-7.73-2.58h4l-2.11-5.13Z"/><path class="cls-2" d="M332.44,20.2h-.15c-1.27.06-1.62.49-1.62,1.9v12h-.51L319.1,22l0,8.88c0,1.86.37,2.3,1.91,2.37v.53h-4.5V33.3c1.44-.11,1.76-.55,1.76-2.34V21.69c0-1.05-.45-1.47-1.58-1.51h-.15v-.53l.32,0h.79l.83,0,.81,0h1l9.47,10.51V22.2c0-1.56-.28-1.88-1.77-2v-.59h.34c.6,0,1.51.07,2,.07l.87,0h1.27Z"/><path class="cls-2" d="M346.69,23.5H346a2.9,2.9,0,0,0-1-2.39c-.5-.34-.77-.4-1.88-.4h-1.68V31.43c0,1.55.29,1.9,1.58,1.93v.47l-1.74,0h-2.11l-1.75,0v-.48c1.3,0,1.58-.4,1.58-1.92V20.73h-2.17c-1.58,0-2.19.68-2.45,2.81h-.72l.19-3.94.32,0h8.64l2,0,1.42,0h.39Z"/><path class="cls-2" d="M357.68,19.79l.09,1c0,.54.1,1.07.21,1.83l0,.35-.68.06a3.27,3.27,0,0,0-.72-1.71c-.66-.75-1.19-.9-3.22-.9h-1.49v5.74h1.45c1.9,0,2.28-.26,2.36-1.7l0-.29h.7v.22l0,.95c0,.28,0,.66,0,1.15s0,.79,0,1l0,1.05v.36h-.7c0-1.62-.41-1.94-2.48-1.94h-1.38v4.35c0,1.44.34,1.74,2,1.74,2.92,0,3.85-.63,4.35-3l.68.13c-.11.85-.21,2-.28,3.19l0,.43c-.92,0-2.19,0-3.81,0l-3.64,0h-1.79l-1.47,0v-.51c1.27,0,1.59-.38,1.59-1.9V22c0-1.53-.32-1.9-1.59-1.92V19.6l.45,0,1.09,0h5.63l1.94,0,.66,0Z"/><path class="cls-2" d="M361.22,19.6c.6,0,1.19,0,1.83,0,.88,0,1.77,0,2.75-.06.68,0,1.23,0,1.66,0,2.58,0,4.26,1.47,4.26,3.66a3.61,3.61,0,0,1-1.81,3.16,5.29,5.29,0,0,1-1.11.42,3.06,3.06,0,0,1,.75,1l1.15,2.17c1.27,2.35,1.47,2.64,2,3a1.78,1.78,0,0,0,.73.32,2.9,2.9,0,0,0,.66.06v.49a8.94,8.94,0,0,1-1.37.11,4.28,4.28,0,0,1-3.19-1.22,15.8,15.8,0,0,1-2.39-4.07c-.57-1.19-1-1.51-2.13-1.51h-.12V31c0,1.87.23,2.15,1.85,2.22v.59h-5.84v-.46c1.3,0,1.59-.38,1.59-1.9V22c0-1.53-.3-1.9-1.59-1.9v-.53Zm3.69,6.86.61,0a5.71,5.71,0,0,0,2.17-.3,2.47,2.47,0,0,0,1.39-2.45,3.71,3.71,0,0,0-1.39-3,3.26,3.26,0,0,0-2.19-.55h-.59Z"/><path class="cls-2" d="M374.83,19.58c.17,0,.63,0,1.32,0,.88,0,1.41,0,1.59,0l1.53,0c.41,0,.77,0,1.09,0a6.19,6.19,0,0,1,2.34.3,3.37,3.37,0,0,1,2.41,3.17c0,1.77-1.43,3.07-3.6,3.3a6.49,6.49,0,0,1,1.94.43,3.46,3.46,0,0,1,2.28,3.32c0,2.41-1.81,3.71-5.08,3.71h-6.19v-.49c1.3,0,1.62-.38,1.62-1.9V22c0-1.54-.32-1.91-1.62-1.91v-.52A2.3,2.3,0,0,0,374.83,19.58Zm3.62,6.6a5.93,5.93,0,0,0,.94.05c1.53,0,2.11-.22,2.68-1a3,3,0,0,0,.56-1.81,3.07,3.07,0,0,0-2.39-3.16,5.81,5.81,0,0,0-1.11-.08h-.68Zm0,5.16c0,1.53.3,1.87,1.59,1.87,2,0,3-.89,3-2.7A3.46,3.46,0,0,0,380.38,27a6.42,6.42,0,0,0-1.24-.1,5.27,5.27,0,0,0-.68,0Z"/><path class="cls-2" d="M400.54,22.2l0,5c0,2.34-.15,3.09-.73,4.12-1,1.81-2.83,2.77-5.3,2.77-3,0-5.37-1.59-6-4.07a10,10,0,0,1-.25-2.56V22.29c0-1.66-.17-1.92-1.49-2.18a1,1,0,0,1-.24,0v-.49h.41c.6.05,1.21.07,1.81.07.81,0,1.62,0,2,0l1.19,0,.49,0v.49c-1.36.15-1.64.49-1.64,2.09V28a5.79,5.79,0,0,0,.64,3.34,4.24,4.24,0,0,0,3.83,2.09,4.33,4.33,0,0,0,4.44-3.68,9.27,9.27,0,0,0,.09-1.39v-.54l-.13-5.45c0-1.81-.24-2.09-1.62-2.22l-.26,0v-.51l.24,0,.91,0c.28,0,.58,0,.9,0l1.34,0,.85,0,.32,0v.51C401,20.16,400.56,20.64,400.54,22.2Z"/><path class="cls-2" d="M403.27,19.6c.59,0,1.19,0,1.83,0,.87,0,1.77,0,2.75-.06.68,0,1.23,0,1.66,0,2.58,0,4.26,1.47,4.26,3.66A3.61,3.61,0,0,1,412,26.34a5.29,5.29,0,0,1-1.11.42,3.06,3.06,0,0,1,.75,1l1.15,2.17c1.26,2.35,1.47,2.64,2,3a1.72,1.72,0,0,0,.73.32,2.85,2.85,0,0,0,.66.06v.49a9,9,0,0,1-1.37.11,4.28,4.28,0,0,1-3.19-1.22,15.8,15.8,0,0,1-2.39-4.07c-.57-1.19-1-1.51-2.13-1.51H407V31c0,1.87.24,2.15,1.86,2.22v.59H403v-.46c1.3,0,1.59-.38,1.59-1.9V22c0-1.53-.3-1.9-1.59-1.9v-.53ZM407,26.46l.62,0a5.76,5.76,0,0,0,2.18-.3,2.48,2.48,0,0,0,1.38-2.45,3.73,3.73,0,0,0-1.38-3,3.34,3.34,0,0,0-2.2-.55H407Z"/><path class="cls-2" d="M428.89,20.11c-1,.11-1.4.45-2.11,1.79l-3.6,6.88v2.58c0,1.59.28,1.9,1.88,2v.49l-.49,0h-5.05l-.68,0v-.48c1.66,0,2-.32,2-2V28.78l-2.92-6c-1.11-2.3-1.38-2.56-2.73-2.69v-.47h.43l1.17,0h4.47l.39,0v.49c-1.27.11-1.59.32-1.59.95a2.36,2.36,0,0,0,.24,1l2.65,5.6,2.64-5.49a2.48,2.48,0,0,0,.28-1c0-.63-.39-.91-1.27-1v-.49l.3,0,.76,0h2.26l.66,0h.36Z"/><path class="cls-2" d="M223.66,2.74c-2.81,0-3.55,1.08-3.59,3.51l-.18,13.9c-.08,6.32-2.73,12.69-12.25,12.69-8,0-14.13-3.47-14.13-12.73V6.25c0-2.43-.78-3.47-3.59-3.51V1.44c3.46.13,4.94.13,6.32.13s2.86,0,6.33-.13v1.3c-2.82,0-3.6,1.08-3.6,3.51V21.19c0,6.5,4.13,10,9,10,7.54,0,10.22-4.85,10.22-12.38,0-2.43,0-4.17-.07-6.08L218,6.45c-.06-2.6-.62-3.71-3.78-3.71V1.44c1.58,0,3.33.13,4.67.13s3.12-.09,4.81-.13Z"/><path class="cls-2" d="M253.63,11.05h-1.12c-.95-6.23-6.24-8.53-11.42-8.53-5.76,0-11.35,4.55-11.35,13,0,8.15,4.68,15.54,12.17,15.54,3.25,0,8.32-1.9,12.05-7.79l0,5.11c-3.6,3-8.81,4.5-13.44,4.5-15,0-17.2-11.6-17.2-16.33,0-7,5-15.63,18.45-15.63a36.65,36.65,0,0,1,11.87,2.42Z"/><path class="cls-2" d="M276.65,4.47v0c0-.13-.21-.83.86-1a2.28,2.28,0,0,1,.53-.7,3.54,3.54,0,0,1,.51.75,1.08,1.08,0,0,1,.89,1s-.54-.32-.67.09l.06,1.36h1.29a.55.55,0,0,0,.18-.6s.85-.4.9.88a2.84,2.84,0,0,1,.75.44,1.57,1.57,0,0,1-.8.56s-.1.92-.9.86c0,0,.27-.49-.12-.66h-1.36V8.78a.41.41,0,0,0,.56.18h0s.42.89-.76.89a2.61,2.61,0,0,1-.53.79,2.13,2.13,0,0,1-.54-.82s-.85-.08-.87-.87c0,0,.46.17.67-.15l-.06-1.36h-1.3a.43.43,0,0,0-.17.58l0,.06s-.88.29-.95-.85a2.45,2.45,0,0,1-.76-.52,2.24,2.24,0,0,1,.79-.53s.12-.89.92-.88c0,0-.29.54.11.66h1.37V4.6a.43.43,0,0,0-.58-.17A.1.1,0,0,0,276.65,4.47Zm1-.06V6.27h-1.86a.6.6,0,0,1-.35-.51.93.93,0,0,0-.27.69.91.91,0,0,0-.64.25,1,1,0,0,0,.61.24c0,.84.32.81.32.81-.1-.37.31-.63.31-.63h1.85V8.94a.81.81,0,0,1-.54.36c.09.22.69.31.69.31a.81.81,0,0,0,.32.64c.17-.11.23-.66.23-.66.65.14.79-.28.79-.28a.75.75,0,0,1-.63-.38V7.13h1.83c.29.09.37.56.37.56a1.34,1.34,0,0,0,.28-.77.81.81,0,0,0,.59-.22.85.85,0,0,0-.61-.28c.07-.67-.26-.83-.26-.83a1,1,0,0,1-.32.68h-1.9V4.38a.82.82,0,0,1,.58-.31,1.25,1.25,0,0,0-.76-.26.91.91,0,0,0-.19-.59,1.08,1.08,0,0,0-.28.61c-.61-.13-.79.23-.79.23a.7.7,0,0,1,.63.35Z"/><path class="cls-2" d="M256.83,4.47,258.27,3l2.17,2.17L262.61,3l1.5,1.51-2.68,2.53V10.6h-2V7.09ZM259.67,7v3.3h1.47V6.93l2.43-2.4-1-1.05-2.15,2.15-2.19-2.19-1,1Z"/><path class="cls-2" d="M260.13,5.83h.56l-.13.5.37-.19v.64l-.31-.13v.93a.8.8,0,0,1-.19.32c-.06,0-.12-.13-.18-.32V6.64l-.38.12V6.13l.38.18-.13-.49Z"/><path class="cls-2" d="M260.07,8.12h.63l-.12.44.37-.13V9l-.37-.12v1c-.06.18-.12.25-.19.25a.45.45,0,0,1-.18-.25v-1l-.32.12V8.43l.37.13-.18-.44Z"/><path class="cls-2" d="M257.84,4.53l.43-.43.25.37.12-.37.44.43-.38.13.75.74a.63.63,0,0,1,.12.37.63.63,0,0,1-.37-.12L258.46,5l-.13.31-.43-.43.37-.12-.43-.19Z"/><path class="cls-2" d="M262.55,4l.43.45-.37.25.37.12-.43.43L262.36,5l-.68.75a1.59,1.59,0,0,1-.37.06.87.87,0,0,1,.06-.32l.74-.74-.32-.19.39-.43.18.37.19-.43Z"/><path class="cls-2" d="M262,23.52c.18,0,.86.23.86.23s.55-.58.55-.58-.78-.29-.78-.29Z"/><polygon class="cls-2" points="276.91 23.97 276.66 24.23 276.91 24.48 277.17 24.23 276.91 23.97"/><polygon class="cls-2" points="275.19 22.99 274.93 23.24 274.68 22.99 274.93 22.73 275.19 22.99"/><path class="cls-2" d="M276.45,23.61l-.53.52-.51-.52.53-.53Zm-.54-.09-.09.08.09.1.1-.09Z"/><path class="cls-2" d="M265.26,19.47a.1.1,0,0,1,0-.08v0a.31.31,0,0,0,.07.33l.11-.1h0l.11-.12h0v0a.23.23,0,0,0-.1-.31h0l-.07.14h0Z"/><path class="cls-2" d="M282.48,12.46c.06,18.52-13.13,21.18-13.13,21.18s-13.13-2.79-13.13-21.18V1.81h26.26ZM256.79,2.33V12a3.1,3.1,0,0,0,1.58.68s.56.19,1.47-.77a2.75,2.75,0,0,1,1.71-.95s.53-.16,1.8.77a3.16,3.16,0,0,0,2,1,2.85,2.85,0,0,0,2-.91,3.37,3.37,0,0,1,1.91-.84s.76-.14,2,.86a3.18,3.18,0,0,0,2,.89,2.62,2.62,0,0,0,1.91-1,3,3,0,0,1,1.81-.86,2.63,2.63,0,0,1,1.8.86s1,1.1,1.81,1a1.75,1.75,0,0,0,1.38-.68V2.37Zm12.4,10.45h-.27V15.5h.27Zm.58,0h-.27V15.5h.27Zm.28-.25a.86.86,0,0,0,.09-.35.78.78,0,1,0-1.48.34h.53A.39.39,0,0,1,269,12a.38.38,0,0,1,.52-.17.39.39,0,0,1,0,.69Zm-3.57,12.6v1.05h6.26s.52,2.31,1.9,2.49v-1s-.39.1-.67-.61L273.6,26A7,7,0,0,0,276,24.59l-.92-.52a7.29,7.29,0,0,1-1.72.92L273,23.84,272,24l.36,1.11Zm1,1.3v.36h2.1v-.37Zm-1,0v2.14h4.79a.23.23,0,0,0,.24-.24s0-.18-.2-.42L270,26.4v.71h-2.75v-.7Zm-.75,2.45v.35h7.39l-2.57-2.8h-.19l1.27,1.38a.77.77,0,0,1,.14.74.55.55,0,0,1-.58.32Zm11-4c.76.34,1-.07,1-.07.29-.53-.35-.93-.35-.93L275,22.39c-.69-.19-.87.22-.87.22a.66.66,0,0,0,.26.84ZM266.22,25.9v-.8A28.4,28.4,0,0,0,263.55,24s.36-.44.49-.56a15.66,15.66,0,0,1,2.65,1.49h1a15.91,15.91,0,0,0-7.3-3.23s-.27-.07-.37.28a.34.34,0,0,0,.25.39,10.89,10.89,0,0,1,1.6.36l-.68.69s-1-.19-1.55-.25a.35.35,0,0,0-.37.35h0s-.05.32.2.39a16.36,16.36,0,0,1,6.71,2Zm-1-8.19a.73.73,0,0,1,.79-.09.39.39,0,0,1,.37.09.72.72,0,0,1,.17-.64.39.39,0,0,0,.25.48h0c-.41.27,0,.47,0,.47-.45.27,0,.48,0,.48-.31.28.08.32.08.32a.66.66,0,0,0,.31.81h-.15a6.35,6.35,0,0,1,0,2,.37.37,0,0,1,0,.29c.09.26-.2.27-.2.27a1.44,1.44,0,0,1-.23.42l.11.14.24-.32.07.06-.19.38.32-.06a.53.53,0,0,0,.32-.44c-.17-.51.12-.68.12-.68a6.06,6.06,0,0,1,.09-2.22c.48-.05.23-.6.23-.6.34-.18.08-.56.08-.56.28-.16.07-.56.07-.56.29-.19.12-.66.12-.66.32-.13.09-.53.09-.53.26-.17,0-.64,0-.64.24.08.32-.31.32-.31v-3a.7.7,0,0,0-.53.31c-.49.07-.55.41-.55.41a.6.6,0,0,0-.58.49c-.46,0-.46.56-.46.56a.4.4,0,0,0-.31.46.59.59,0,0,0-.3.48c-.3.13-.3.55-.3.55-.37.1-.24.5-.24.5-.27.12-.16.54-.16.54a.7.7,0,0,0-.26.54l.31.22Zm-.39.63c.28.55.63.52.63.52a.72.72,0,0,0,.7-.27.54.54,0,0,0,.05-.63c-.1-.2-.23,0-.23,0-.17.51-.38.48-.38.48-.28.12-.49-.38-.49-.38a.82.82,0,0,0-.76-.46,1.79,1.79,0,0,1,.48.7Zm0,1a.58.58,0,0,1-.09.25,1.1,1.1,0,0,1,.55.61c.3.64.57.43.57.43l-.13-.19a.2.2,0,0,1,0-.25c.12-.09.25,0,.25,0-.26-.58.18-.71.18-.71a1,1,0,0,0-.1-.56,1.08,1.08,0,0,1-.86.1.83.83,0,0,1-.36.26Zm.46-1.37.13.23s.06.15.19,0a1,1,0,0,0,.19-.36s-.17-.11-.51.12Zm-1,.11a.79.79,0,0,0-.58-.21,5.7,5.7,0,0,1,.42.55s.09-.31.17-.36Zm2.06,1.58a.38.38,0,0,1-.13.09.23.23,0,0,0,0,.29s.28.44,0,.63a3,3,0,0,1,0,1.39,1.91,1.91,0,0,0-.15.58l.14-.26h.09l-.06.32.19-.05a1.62,1.62,0,0,0,.17-.48s-.05-.27.13-.31a.36.36,0,0,1,0-.32,3.5,3.5,0,0,0,0-1.9.39.39,0,0,1-.39,0Zm0-.67a2,2,0,0,1,.06.35l.06.08h.11l0-.3Zm5.05,3.91.5-.32,0,.07a2.57,2.57,0,0,0-.39.35s.08.06.61-.11a.52.52,0,0,0,.27-.19s.11-.07,0-.23a.45.45,0,0,1-.08-.26.19.19,0,0,0,.21-.05s0,0,.09-.12a.36.36,0,0,1,.13-.31,12.9,12.9,0,0,1,0-2.22s.09-.43-.25-.51c0,0,.39-.37,0-.51,0,0,.41-.39-.06-.54,0,0,.51-.36.17-.66a.45.45,0,0,0-.05-.6s.12-.52-.2-.58c0,0,.26-.36-.05-.45,0,0,.18-.51-.18-.66,0,0,.39,0,.48.54,0,0,.27.13.08.47a.56.56,0,0,1,.16.61.6.6,0,0,1,.07.63s.28.44-.11.66a.41.41,0,0,1,0,.52.35.35,0,0,1,0,.5.56.56,0,0,1,0,.49s.4.33.72.07a.6.6,0,0,0,.1-.58s.2-.19.09-.35a.26.26,0,0,0-.05-.32.5.5,0,0,0-.07-.6.74.74,0,0,0-.13-.59.54.54,0,0,0-.18-.52s.11-.43-.15-.63a.63.63,0,0,0-.24-.52.64.64,0,0,0-.36-.59.6.6,0,0,0-.4-.48.54.54,0,0,0-.43-.39.34.34,0,0,0-.26-.35s0-.37-.57-.33a.5.5,0,0,0-.42-.32.5.5,0,0,0-.4-.16l-.14-.09v3s0,.09-.07.1,0,.44.27.56a.42.42,0,0,0,.1.51s-.09.43.16.59c0,0-.12.35.1.49a.58.58,0,0,0,.17.6s0,.36.3.41c0,0,.19.4.52.31,0,0,.36.25.08,2.42a.36.36,0,0,0-.19.43s-.19.12-.3.6h.06l.45-.39a.37.37,0,0,1,.1-.46,1.76,1.76,0,0,1,.15-.44,5.5,5.5,0,0,0,0-1.94.63.63,0,0,1-.09-.24.55.55,0,0,1-.31-.25.48.48,0,0,1-.43-.43c-.24-.11-.22-.44-.22-.44-.32-.18-.14-.6-.14-.6-.25-.13-.18-.61-.18-.61-.26-.16-.12-.51-.12-.51-.2-.1-.12-.43-.12-.43-.27-.28,0-.74,0-.74a.66.66,0,0,0,.31.67c-.14.23.11.45.11.45-.16.29.16.49.16.49a.59.59,0,0,0,.14.63c-.18.4.15.51.15.51-.13.29.22.44.22.44-.1.36.37.37.37.37-.09.21.31.44.31.44a.35.35,0,0,1-.11,0,.49.49,0,0,0,.32.16,11.36,11.36,0,0,1,0,2s-.08.32-.1.38a.17.17,0,0,0,0,.14.3.3,0,0,1-.22.14.33.33,0,0,0-.15.24Zm-7-4.55.1.1c.09.21-.17.22-.17.22a.1.1,0,0,0,0,.2h0a.19.19,0,0,1,.15.11c.05.11-.08.23-.08.23a.16.16,0,0,0,0,.21c.06.05.13,0,.13,0v-.19c0-.19.21-.17.21-.17a.4.4,0,0,0,.26-.06,1,1,0,0,1-.35-.36l-.2-.36Z"/><path class="cls-2" d="M266.23,4.17a2.24,2.24,0,0,0,1.24-.27,1.77,1.77,0,0,1,1.81,0,2.12,2.12,0,0,1,2,0,2.83,2.83,0,0,0,1.45.32v.08l.66.06v.53h.37v1h-.37v.24h.37v1h-.37v.44h.37v1h-.37v.42h.37v1h-.37v.32h-3.54a1.28,1.28,0,0,1-1,0h-3.33V9.81l-.38,0,.16.1-.32.32-.53-.48-.27,0s-.23-.12,0-.3l.26,0,.54-.48.37.31-.19,0v.1l.36,0V8.39l-.4,0,.18.12-.32.34-.57-.52h-.24s-.27-.16,0-.31l.25,0,.53-.49.35.32-.19.1.39,0V7L265,6.9l.21.11-.32.32-.53-.47-.26,0s-.25-.13,0-.31h.25l.54-.51.35.31-.25.12.46,0V5.53H265l.2.08-.36.36-.47-.46h-.27s-.31-.11,0-.32l.16,0,.6-.53.34.32L265,5.1l.46,0V4.36l.78-.05Zm-.41,5.45.39-.37V4.68l-.4,0Zm2.89.22.36-.74a7,7,0,0,1-2.63.34l-.39.44Zm.59-.47-.3.6a.88.88,0,0,0,.64,0Zm.19-.29.43.8h2.89l-.43-.38A8.63,8.63,0,0,1,270,9.18a3.12,3.12,0,0,0-.52-.08Zm3.24.27.28.25V4.71l-.28,0Zm-6.19-.21A6.6,6.6,0,0,0,267.87,9c.68-.13,1.27-.22,1.27-.22V4.5l.16-.19.16.19V8.77a12.42,12.42,0,0,1,1.48.27,6.68,6.68,0,0,0,1.48.13V4.56a3.45,3.45,0,0,1-1.29-.39,1.94,1.94,0,0,0-1.84.1,1.5,1.5,0,0,0-1.65-.09,2.42,2.42,0,0,1-1.11.32Z"/></svg>